<?xml version="1.0" standalone="no"?>
<!DOCTYPE svg PUBLIC "-//W3C//DTD SVG 20010904//EN"
 "http://www.w3.org/TR/2001/REC-SVG-20010904/DTD/svg10.dtd">
<svg version="1.0" xmlns="http://www.w3.org/2000/svg"
 width="523.000000pt" height="477.000000pt" viewBox="0 0 523.000000 477.000000"
 preserveAspectRatio="xMidYMid meet">

<g transform="translate(0.000000,477.000000) scale(0.100000,-0.100000)"
fill="#000000" stroke="none">
<path d="M2837 4566 c-171 -89 -221 -103 -299 -87 -34 7 -113 38 -176 69 -94
46 -126 57 -177 60 -192 12 -330 -132 -439 -458 -37 -111 -134 -447 -157 -540
-7 -30 -15 -58 -18 -62 -4 -4 -58 6 -121 22 -234 60 -355 23 -355 -110 0 -64
37 -110 138 -171 138 -84 379 -147 757 -199 290 -40 842 -38 1179 5 328 42
726 155 854 242 108 74 100 199 -16 247 l-48 20 -132 -33 c-73 -18 -151 -34
-172 -35 l-40 -1 -7 65 c-9 89 -36 201 -53 220 -7 8 -29 71 -49 140 -113 399
-204 568 -348 639 -50 26 -73 31 -130 31 -65 0 -75 -4 -191 -64z m-712 -851
c317 -32 625 -30 1000 5 239 23 253 23 268 9 21 -21 49 -115 42 -139 -3 -11
-15 -24 -25 -30 -18 -9 -224 -29 -540 -51 -188 -14 -517 -7 -775 16 -214 19
-284 30 -311 49 -16 12 -17 18 -5 72 8 37 21 66 34 77 24 20 34 20 312 -8z"/>
<path d="M503 2933 c-10 -3 -13 -70 -13 -284 l0 -279 291 0 290 0 -4 -737 c-4
-803 -6 -824 -62 -913 -34 -54 -64 -71 -124 -72 -65 0 -97 20 -123 80 -19 42
-20 58 -14 175 l7 129 -28 -6 c-28 -6 -129 -15 -432 -38 l-163 -12 5 -166 c3
-104 11 -186 21 -221 75 -266 279 -452 554 -505 96 -18 272 -18 362 1 287 60
510 259 604 539 65 193 79 390 73 985 -2 283 0 450 5 449 6 -2 101 -162 211
-355 400 -695 421 -731 442 -737 26 -8 352 -5 433 3 l63 6 38 70 c73 136 278
510 471 860 15 28 38 69 50 92 12 24 27 43 32 43 7 0 9 -198 7 -587 -3 -572
-3 -591 18 -684 57 -252 174 -437 353 -559 275 -187 692 -185 950 5 81 60 173
169 209 250 50 111 63 179 68 346 l5 166 -78 7 c-270 22 -338 28 -414 37 -144
16 -130 30 -127 -128 2 -118 -1 -144 -17 -176 -46 -93 -184 -90 -240 5 -62
107 -76 296 -79 1056 l-2 592 293 0 292 0 0 279 0 279 -102 7 c-57 3 -386 5
-731 3 l-628 -3 -48 -90 c-52 -98 -232 -430 -289 -535 -20 -36 -93 -171 -163
-300 -70 -129 -131 -236 -136 -237 -4 -2 -30 41 -58 95 -27 53 -71 135 -96
182 -25 47 -87 164 -137 260 -50 96 -145 276 -211 400 l-120 225 -748 2 c-411
1 -754 -1 -760 -4z"/>
</g>
</svg>
